<svg width="149" height="44" viewBox="0 0 149 44" fill="none" xmlns="http://www.w3.org/2000/svg">
<path d="M76.1934 39.7586L86.1491 25.2426L76.9906 12.2417H83.015L89.4861 22.2598L96.0053 12.2417H101.93L92.9192 25.2426L102.875 39.7586H96.9503L89.4826 28.3705L82.0665 39.7586H76.1934Z" fill="#82655F"/>
<path d="M40.4632 38.7227V8.33435L38.0576 7.57177C39.5525 7.20736 40.6763 6.99815 42.5973 6.06349C43.8792 5.43926 44.0923 5.17944 44.4668 5.17944C45.216 5.17944 44.948 6.06349 44.948 7.41656V38.7227" fill="#82655F"/>
<path d="M69.4195 36.7521V38.1221C69.4195 39.0331 69.3645 41.3175 71.1824 41.3175C71.9831 41.3175 72.7839 40.7607 73.1069 40.5077C73.4265 40.2546 73.643 39.9509 73.9076 39.9509C74.2272 39.9509 74.5503 40.1027 74.5503 40.457C74.5503 40.8113 74.0692 41.3175 73.5365 41.7764C72.0931 43.0451 70.4917 44.0067 68.9418 44.0067C65.7904 44.0067 65.0962 40.7101 64.9347 40.0521C64.8797 39.9509 64.8282 39.6978 64.6151 39.6978C64.5086 39.6978 64.3471 39.7991 63.8659 40.1534C59.9139 43.2475 57.3467 44.0067 54.9446 44.0067C51.099 44.0067 50.1883 41.3208 50.1883 39.5966C50.1883 36.4518 53.5012 33.6647 63.5463 30.1184C64.6701 29.7135 65.0962 29.4604 65.0962 28.7991L65.2577 22.7659C65.3127 20.5356 65.5258 17.9003 61.6253 17.9003C56.9756 17.9003 55.4807 21.0957 55.0545 22.2092C54.6799 23.1708 54.0923 25.3 50.6729 25.3C49.7656 25.3 49.7656 24.8951 49.7656 24.4902C49.7656 22.6647 51.4736 20.8392 53.0785 19.6751C54.6284 18.511 58.0993 16.4797 62.9621 16.4797C69.7459 16.4797 69.9074 20.1307 69.8525 21.5984L69.4263 36.7555L69.4195 36.7521ZM65.0378 31.8359C65.0378 31.4816 65.0928 31.1273 64.6632 31.1273C64.5567 31.1273 64.2886 31.1273 63.4329 31.431C59.852 32.5984 55.3638 34.7276 55.3638 38.0208C55.3638 39.185 55.6834 41.1116 58.2506 41.1116C61.4019 41.1116 64.8213 38.78 64.9278 35.3316L65.0344 31.8325L65.0378 31.8359Z" fill="#82655F"/>
<path d="M4.70515 43.1666L4.81169 26.8015C4.81169 26.4877 4.7567 25.8568 5.07974 25.5969C5.29281 25.4383 5.72238 25.3877 6.94924 25.3877C9.4064 25.3877 10.5302 25.1245 12.4512 28.7451L16.3139 35.9795L16.4892 36.3068C16.4892 36.3068 16.7366 36.9546 17.2487 37.8791C19.5168 41.9586 25.2422 44.6951 29.8713 43.7132C30.2424 43.6356 30.6033 43.5344 30.9469 43.4129C31.8439 43.0923 33.5862 41.8742 34.4076 41.1555C34.5931 40.9902 34.8062 40.7709 34.9986 40.5414C34.9986 40.5414 35.0021 40.538 35.0055 40.5347C35.655 39.8632 35.7238 39.4583 35.7238 39.2896C35.7238 39.0196 35.4832 38.9859 35.3148 38.9859C35.009 38.9859 34.8028 39.3537 34.0501 39.9577C33.1291 40.6966 31.7957 41.3006 29.8472 41.3006C25.6443 41.3006 22.8091 38.112 22.8091 33.9178C22.8091 31.2994 23.218 31.0666 24.0737 31.0666H35.1808C35.7616 31.0666 35.8647 30.7966 35.8647 30.4626C35.8647 29.0184 34.4625 24.9929 28.6891 24.9929C23.6648 24.9929 20.1526 28.6169 19.8055 33.3712L18.802 30.8742C18.7711 30.7933 18.7436 30.7156 18.7058 30.638C18.5752 30.3512 18.2625 29.4874 17.8776 28.8058L17.6267 28.3638C17.4514 28.0534 17.3071 27.8003 17.2453 27.689L16.8913 27.0647C15.716 24.966 14.6472 24.7028 14.0046 24.6521V24.4429C22.2317 23.2383 23.6751 18.727 23.6751 15.8387C23.6751 6.76196 13.3653 6.76196 11.1728 6.76196C6.7671 6.76196 5.41309 7.03865 2.92844 7.07239C2.57447 7.07577 2.2205 7.15 1.89059 7.27822C0.753082 7.72024 0.00390625 8.8 0.00390625 10.0046V42.5896M24.3109 28.0837C25.3006 26.842 26.9089 26.0018 28.7887 26.0018C31.1806 26.0018 32.6171 27.311 32.6171 28.4178C32.6171 30.1285 30.3627 30.0948 28.3111 30.1285L24.2799 30.1623C23.9741 30.1623 23.5617 30.1285 23.5617 29.6258C23.5617 29.1568 24.0394 28.4515 24.3143 28.0837H24.3109ZM9.19333 23.812H6.94924C4.70515 23.812 4.81169 23.4442 4.81169 22.4488V11.6411C4.81169 8.96534 5.34436 8.33773 9.13835 8.33773C16.0321 8.33773 18.3278 12.1675 18.3278 16.1525C18.3278 23.5488 11.2209 23.812 9.19333 23.812Z" fill="#82655F"/>
<path d="M120.278 14.9783V3.19885H122.388L122.446 5.93536L122.426 7.21419C122.464 7.11971 122.756 5.77339 122.883 5.48658C123.01 5.1964 123.086 4.75775 123.371 4.4237C123.653 4.08628 124.031 3.79947 124.501 3.5599C124.972 3.32033 125.546 3.19885 126.233 3.19885C127.271 3.19885 128.038 3.47217 128.536 4.01879C129.034 4.56542 129.392 5.20315 129.608 5.93536H129.667C129.687 5.84088 129.773 5.64855 129.931 5.36174C130.086 5.07155 130.316 4.76112 130.622 4.4237C130.924 4.08628 131.32 3.79947 131.811 3.5599C132.299 3.32033 132.897 3.19885 133.601 3.19885C134.364 3.19885 134.986 3.35407 135.464 3.66112C135.942 3.96818 136.313 4.36634 136.578 4.8556C136.842 5.34487 137.028 5.8645 137.134 6.41112C137.241 6.95775 137.306 7.48075 137.327 7.98014C137.347 8.47953 137.354 8.89118 137.354 9.21848V14.9783H135.272V9.18812C135.272 8.90131 135.258 8.54026 135.227 8.10836C135.199 7.67646 135.11 7.24456 134.962 6.81266C134.815 6.38075 134.571 6.02646 134.227 5.7464C133.883 5.46971 133.402 5.32799 132.777 5.32799C132.034 5.32799 131.457 5.52033 131.045 5.90499C130.632 6.28965 130.34 6.79241 130.165 7.41664C129.99 8.04088 129.9 8.68873 129.9 9.3602V14.9749H127.818V9.18474C127.818 8.89793 127.804 8.53689 127.773 8.10499C127.742 7.67309 127.656 7.24118 127.508 6.80928C127.361 6.37738 127.117 6.02309 126.776 5.74302C126.433 5.46634 125.952 5.32462 125.323 5.32462C124.58 5.32462 124.003 5.51695 123.591 5.90161C123.182 6.28628 122.886 6.78904 122.711 7.41327C122.536 8.0375 122.446 8.68536 122.446 9.35683V14.9716H120.274L120.278 14.9783Z" fill="#F8F8F8"/>
<path d="M110.095 4.05249C110.095 4.24144 110.246 4.41016 110.483 4.41016H112.827C112.978 4.41016 113.15 4.41016 113.129 4.64298L113.109 5.00065C113.088 5.23347 113.043 5.25371 112.83 5.25371H110.487C110.164 5.25371 110.098 5.44267 110.098 5.65525V11.8571C110.098 12.9537 110.119 14.4316 111.366 14.4316C112.012 14.4316 112.483 14.0942 112.892 13.777C113.236 13.5037 113.387 13.6724 113.387 13.8411C113.387 13.9255 113.322 14.1381 112.765 14.6206C112.119 15.1706 111.456 15.4237 110.638 15.4237C108.662 15.4237 108.294 13.9255 108.294 12.7006V5.44267C108.294 5.31782 108.294 5.10525 108.078 5.10525H107.304C107.067 5.10525 107.002 4.95678 107.002 4.87243C107.002 4.6396 107.218 4.55525 107.476 4.4304C108.335 3.96476 108.851 3.50249 109.239 2.80402C109.476 2.38224 109.562 2.06506 109.861 2.06506C110.098 2.06506 110.098 2.29789 110.098 2.42273V4.04911L110.095 4.05249Z" fill="#F8F8F8"/>
<path d="M115.775 14.6037L115.72 7.37274C115.72 6.16477 115.291 6.14115 114.669 6.14115H114.432C114.325 6.14115 114.153 6.11753 114.153 5.91507C114.153 5.73287 114.28 5.66538 114.432 5.59452C116.236 4.7982 116.408 4.47765 116.989 3.86354C117.095 3.77244 117.16 3.70495 117.312 3.70495C117.696 3.70495 117.525 4.20434 117.525 4.68348L117.562 14.9783L115.775 14.6004V14.6037ZM117.631 1.15741C117.631 1.87612 117.202 2.27428 116.555 2.27428C115.782 2.27428 115.459 1.63655 115.459 1.0798C115.459 0.563541 115.823 0.00341797 116.535 0.00341797C117.202 0.00341797 117.631 0.462314 117.631 1.15741Z" fill="#F8F8F8"/>
<path d="M141.584 7.7844C141.048 7.7844 140.79 7.93286 140.79 9.57612C140.79 12.2148 142.574 14.2191 145.216 14.2191C146.44 14.2191 147.278 13.8378 147.859 13.3755C148.333 12.9976 148.461 12.7648 148.653 12.7648C148.76 12.7648 148.911 12.785 148.911 12.9537C148.911 13.0583 148.87 13.2709 148.461 13.6927C147.708 14.4721 146.57 15.4237 144.292 15.4237C141.175 15.4237 138.876 13.0178 138.876 9.72796C138.876 6.43808 141.154 3.96814 144.484 3.96814C148.117 3.96814 148.997 6.49881 148.997 7.40648C148.997 7.61906 148.931 7.78777 148.567 7.78777H141.584V7.7844ZM144.247 7.19391C145.536 7.17366 146.955 7.19391 146.955 6.11753C146.955 5.42243 146.052 4.59912 144.55 4.59912C143.368 4.59912 142.357 5.1255 141.735 5.90832C141.563 6.14115 141.261 6.58317 141.261 6.8801C141.261 7.19728 141.519 7.21753 141.711 7.21753L144.247 7.19728V7.19391Z" fill="#F8F8F8"/>
</svg>
